<svg xmlns="http://www.w3.org/2000/svg" width="774.463" height="32.86mm" viewBox="0 0 580.84 93.14"><path d="M427.37 25.25h6.1v37.24h17.83v5.37h-23.93V25.25zm44.07 0h6.41l18 42.61h-6.65l-4.33-10.74H464l-4.33 10.74h-6.41Zm3 5.74L466 52.11h17Zm29.49-5.74h11.54c8.85 0 14.95 2.87 14.95 10.75 0 5.86-3.42 8.79-8.79 10.13v.12c5.8.49 9.89 4.27 9.89 10.26 0 9.15-7.57 11.35-16.24 11.35h-11.35ZM510 43.44h3.36c5.92 0 10.93-.55 10.93-6.83 0-5.07-4.34-6.35-7.88-6.35H510Zm0 19.41h4.58c5.49 0 10.44-1.15 10.44-6.89 0-6.6-5.8-7.51-11-7.51h-4Zm49.7-38.98c13.34 0 21.14 9.68 21.14 22.7 0 13.33-7.74 22.71-21.14 22.71s-21.13-9.38-21.13-22.71c0-13 7.8-22.7 21.13-22.7m0 39.87c10.13 0 14.47-8.43 14.47-17.17 0-8.93-4.78-17.23-14.47-17.17s-14.46 8.24-14.46 17.17c0 8.74 4.34 17.17 14.46 17.17" style="fill:#9fa0a0"/><path d="M124.3 25.26h9.64l16.73 42.61h-9.46l-3.66-9.77h-17.28l-3.72 9.77h-8.85Zm4.7 8.55h-.12l-6.17 17.58h12.46Zm29.6-8.55h8.55v35.9h16.54v6.71H158.6V25.26zm32.05 0h8.54v35.9h16.55v6.71h-25.09V25.26zm63.98 7.85a28.78 28.78 0 0 0-11.32-2.32c-10.25 0-15.9 6.91-15.9 15.9s5.53 15.66 14.9 15.66a23.63 23.63 0 0 0 5.78-.63V50.28h-9.3v-6.92h17.73V67a55.36 55.36 0 0 1-14.21 2.27c-14.21 0-24.08-7.11-24.08-21.95 0-15 9.18-23.45 24.08-23.45a43.44 43.44 0 0 1 12.89 1.82Zm13.21-8.7h9.41c9.33 0 20.48-.31 20.48 11.77a9.94 9.94 0 0 1-9 10.09v.12c2.37.19 3.74 2.55 4.61 4.48l7 17h-9.71L285.4 54.3c-1.24-3.24-2.36-4.49-6-4.49h-2.8v18.06h-8.72Zm8.72 19h2.86c4.3 0 9.22-.62 9.22-6 0-5.23-4.86-5.66-9.22-5.66h-2.86Zm50.26-19.54c13.77 0 21.5 9.31 21.5 22.57s-7.6 22.82-21.5 22.82c-14.08 0-21.5-9.36-21.5-22.82s7.54-22.57 21.5-22.57m0 38.48c9 0 12.32-8 12.32-15.91 0-7.73-3.58-15.65-12.32-15.65s-12.32 7.92-12.32 15.65c0 7.92 3.33 15.91 12.32 15.91M353 25.26h8.98l7.93 34.07h.12l7.27-34.07h11.6l7.5 34.07h.12l8-34.07h8.3l-11.11 42.61h-10.98l-7.69-34.06h-.13l-7.57 34.06H364.3L353 25.26zM93.15 46.57A46.58 46.58 0 1 1 46.58 0a46.57 46.57 0 0 1 46.57 46.57" style="fill:#051c2c"/><path style="fill:#fff" d="M54.84 20.58H38L18.54 61.19l10.64 11.06 17.17-37.94.1.02 16.97 37.86 10.76-11.04-19.34-40.57z"/></svg>