<svg xmlns="http://www.w3.org/2000/svg" width="204.91mm" height="32.86mm" viewBox="0 0 580.84 93.14"><defs><style>.a{fill:#9fa0a0;}.b{fill:#051c2c;}.c{fill:#fff;}</style></defs><title>logo</title><polygon class="a" points="427.37 25.25 433.47 25.25 433.47 62.49 451.3 62.49 451.3 67.86 427.37 67.86 427.37 25.25"/><path class="a" d="M471.44,25.25h6.41l18,42.61H489.2l-4.33-10.74H464l-4.33,10.74h-6.41Zm3,5.74L466,52.11h17Z"/><path class="a" d="M503.93,25.25h11.54c8.85,0,14.95,2.87,14.95,10.75,0,5.86-3.42,8.79-8.79,10.13v.12c5.8.49,9.89,4.27,9.89,10.26,0,9.15-7.57,11.35-16.24,11.35H503.93ZM510,43.44h3.36c5.92,0,10.93-.55,10.93-6.83,0-5.07-4.34-6.35-7.88-6.35H510Zm0,19.41h4.58c5.49,0,10.44-1.15,10.44-6.89,0-6.6-5.8-7.51-11-7.51h-4Z"/><path class="a" d="M559.7,23.87c13.34,0,21.14,9.68,21.14,22.7,0,13.33-7.74,22.71-21.14,22.71s-21.13-9.38-21.13-22.71c0-13,7.8-22.7,21.13-22.7m0,39.87c10.13,0,14.47-8.43,14.47-17.17,0-8.93-4.78-17.23-14.47-17.17s-14.46,8.24-14.46,17.17c0,8.74,4.34,17.17,14.46,17.17"/><path class="b" d="M124.3,25.26h9.64l16.73,42.61h-9.46l-3.66-9.77H120.27l-3.72,9.77H107.7Zm4.7,8.55h-.12l-6.17,17.58h12.46Z"/><polygon class="b" points="158.6 25.26 167.15 25.26 167.15 61.16 183.69 61.16 183.69 67.87 158.6 67.87 158.6 25.26"/><polygon class="b" points="190.65 25.26 199.19 25.26 199.19 61.16 215.74 61.16 215.74 67.87 190.65 67.87 190.65 25.26"/><path class="b" d="M254.63,33.11a28.78,28.78,0,0,0-11.32-2.32c-10.25,0-15.9,6.91-15.9,15.9s5.53,15.66,14.9,15.66a23.63,23.63,0,0,0,5.78-.63V50.28h-9.3V43.36h17.73V67a55.36,55.36,0,0,1-14.21,2.27c-14.21,0-24.08-7.11-24.08-21.95,0-15,9.18-23.45,24.08-23.45a43.44,43.44,0,0,1,12.89,1.82Z"/><path class="b" d="M267.84,24.41h9.41c9.33,0,20.48-.31,20.48,11.77a9.94,9.94,0,0,1-9,10.09v.12c2.37.19,3.74,2.55,4.61,4.48l7,17h-9.71L285.4,54.3c-1.24-3.24-2.36-4.49-6-4.49h-2.8V67.87h-8.72Zm8.72,19h2.86c4.3,0,9.22-.62,9.22-6,0-5.23-4.86-5.66-9.22-5.66h-2.86Z"/><path class="b" d="M326.82,23.87c13.77,0,21.5,9.31,21.5,22.57s-7.6,22.82-21.5,22.82c-14.08,0-21.5-9.36-21.5-22.82s7.54-22.57,21.5-22.57m0,38.48c9,0,12.32-8,12.32-15.91,0-7.73-3.58-15.65-12.32-15.65S314.5,38.71,314.5,46.44c0,7.92,3.33,15.91,12.32,15.91"/><polygon class="b" points="353 25.26 361.98 25.26 369.91 59.33 370.03 59.33 377.3 25.26 388.9 25.26 396.4 59.33 396.52 59.33 404.52 25.26 412.82 25.26 401.71 67.87 390.73 67.87 383.04 33.81 382.91 33.81 375.34 67.87 364.3 67.87 353 25.26"/><path class="b" d="M93.15,46.57A46.58,46.58,0,1,1,46.58,0,46.57,46.57,0,0,1,93.15,46.57"/><polygon class="c" points="54.84 20.58 38 20.58 18.54 61.19 29.18 72.25 46.35 34.31 46.45 34.33 63.42 72.19 74.18 61.15 54.84 20.58"/></svg>